<svg xmlns="http://www.w3.org/2000/svg" viewBox="0 0 24 24"><circle fill="#F9C20A" cx="16.5" cy="16.5" r="6.5"/><path opacity=".1" d="M16.5 22.75a6.621 6.621 0 01-6.217-4.356 6.499 6.499 0 0012.435 0A6.621 6.621 0 0116.5 22.75z"/><path opacity=".2" fill="#FFF" d="M16.5 10.25c2.86 0 5.29 1.817 6.218 4.356a6.501 6.501 0 00-12.435 0A6.621 6.621 0 0116.5 10.25z"/><path fill="#FFF" d="M16.25 14.5h2.25v-1H17V13h-1v.525c-.846.123-1.5.846-1.5 1.725 0 .965.785 1.75 1.75 1.75h.5a.751.751 0 010 1.5H14.5v1H16v.5h1v-.525a1.747 1.747 0 001.5-1.725c0-.965-.785-1.75-1.75-1.75h-.5a.751.751 0 010-1.5z"/><circle fill="#FFDA02" cx="9" cy="9" r="8"/><circle fill="#FFDA02" cx="9" cy="9" r="8"/><path opacity=".1" d="M9 16.75c-4.376 0-7.932-3.495-8-7.855V9a8 8 0 1016 0v-.14c-.068 4.36-3.624 7.89-8 7.89z"/><path opacity=".2" fill="#FFF" d="M9 1.25c3.534 0 6.533 2.26 7.65 5.411a8 8 0 00-15.3 0C2.468 3.511 5.466 1.25 9 1.25z"/><path fill="#FFF" d="M9 7h1V6H9a2.503 2.503 0 00-2.5 2.5H6v1h.5C6.5 10.878 7.622 12 9 12h1v-1H9c-.827 0-1.5-.673-1.5-1.5h2v-1h-2C7.5 7.673 8.173 7 9 7z"/><linearGradient id="a" gradientUnits="userSpaceOnUse" x1="8.05" y1="8.065" x2="13.562" y2="13.577"><stop offset="0" stop-color="#3E2723" stop-opacity=".2"/><stop offset="1" stop-color="#3E2723" stop-opacity=".02"/></linearGradient><path fill="url(#a)" d="M6 9.5l.572.572A2.478 2.478 0 016.5 9.5H6zM10 6v1H9c-.827 0-1.5.673-1.5 1.5h2v1h-2c0 .827.673 1.5 1.5 1.5h1v1H9a2.49 2.49 0 01-1.75-.72l5.017 5.018a8.02 8.02 0 004.02-4.01L10 6z"/><path fill="#0076BE" d="M7.498 23c-3.137-.01-5.135-2.744-5.488-5.438l.992-.13c.296 2.264 1.937 4.56 4.5 4.568l-.004 1z"/><path fill="#039BE5" d="M1 20l1-3.5 3 2z"/><path fill="#0076BE" d="M16.502 1c3.137.01 5.135 2.744 5.488 5.438l-.992.13c-.296-2.264-1.937-4.56-4.5-4.568l.004-1z"/><path fill="#039BE5" d="M23 4l-1 3.5-3-2z"/><linearGradient id="b" gradientUnits="userSpaceOnUse" x1="13.877" y1="13.877" x2="19.911" y2="19.911"><stop offset="0" stop-color="#3E2723" stop-opacity=".2"/><stop offset="1" stop-color="#3E2723" stop-opacity=".02"/></linearGradient><path fill="url(#b)" d="M16.928 10.022a7.994 7.994 0 01-6.906 6.906A6.495 6.495 0 0023 16.5a6.495 6.495 0 00-6.072-6.478z"/><linearGradient id="c" gradientUnits="userSpaceOnUse" x1="1.135" y1="6.933" x2="23.312" y2="17.275"><stop offset="0" stop-color="#FFF" stop-opacity=".2"/><stop offset="1" stop-color="#FFF" stop-opacity="0"/></linearGradient><path fill="url(#c)" d="M3.461 19.077L5 18.5l-3-2L1 20l1.527-.573c.84 1.96 2.57 3.566 4.971 3.573l.004-1c-1.93-.006-3.337-1.312-4.04-2.923zM20.54 4.923L19 5.5l3 2L23 4l-1.527.573c-.84-1.96-2.57-3.566-4.971-3.573l-.004 1c1.93.006 3.337 1.312 4.04 2.923zm-3.611 5.099C16.97 9.686 17 9.347 17 9a8 8 0 10-8 8c.347 0 .687-.03 1.022-.072A6.495 6.495 0 0023 16.5a6.495 6.495 0 00-6.072-6.478z"/></svg>